<svg xmlns="http://www.w3.org/2000/svg" version="1.1" xmlns:xlink="http://www.w3.org/1999/xlink" xmlns:svgjs="http://svgjs.com/svgjs" width="1000" height="1000"><rect width="1000" height="1000" rx="500" ry="500" fill="#000000"></rect><g transform="matrix(1.348747591522158,0,0,1.348747591522158,176.30057803468208,150.1046200202839)"><svg xmlns="http://www.w3.org/2000/svg" version="1.1" xmlns:xlink="http://www.w3.org/1999/xlink" xmlns:svgjs="http://svgjs.com/svgjs" width="480" height="519"><svg width="480" height="519" viewBox="0 0 480 519" fill="none" xmlns="http://www.w3.org/2000/svg">
<g clip-path="url(#clip0_115_13)">
<path d="M0 0H480V518.4H0V0Z" fill="black"></path>
<path d="M260.92 69L274.36 70.92L308.92 90.12L318.52 97.8V332.04L347.32 314.76L349.24 130.44L356.92 122.76L368.44 124.68L410.68 149.64L412.6 151.56V351.24L362.68 380.04L316.6 406.92L276.28 429.96L247.48 447.24L235.96 449.16L195.64 426.12L187.96 418.44L189.88 406.92L214.84 391.56L251.32 370.44H255.16V74.76L260.92 69Z" fill="#FAFAFA"></path>
<path d="M207.16 69L220.6 70.92L224.44 74.76V130.44L212.92 140.04L168.76 165L132.28 186.12L130.36 222.6L180.28 193.8L207.16 178.44H218.68L224.44 186.12V237.96L214.84 247.56L164.92 276.36L132.28 295.56V314.76L139.96 320.52H149.56L195.64 293.64L209.08 285.96L218.68 287.88L224.44 293.64V347.4L214.84 357L166.84 383.88L151.48 393.48H139.96L91.96 366.6L70.84 353.16L67 349.32V151.56L84.28 140.04L134.2 111.24L184.12 82.44L207.16 69Z" fill="#FBFBFB"></path>
</g>
<defs>
<clipPath id="clip0_115_13">
<rect width="480" height="518.4" fill="white"></rect>
</clipPath>
</defs>
</svg></svg></g></svg>